<svg width="4795" height="1608" viewBox="0 0 4795 1608" fill="none" xmlns="http://www.w3.org/2000/svg">
<path d="M597.281 466.843C564.587 519.369 545.701 581.382 545.701 647.806C545.701 837.197 699.232 990.729 888.623 990.729C910.594 990.729 932.081 988.66 952.903 984.711C892.455 1083.84 783.312 1150.03 658.709 1150.03C628.955 1150.03 600.082 1146.26 572.544 1139.16V1303.27H314.383V819.767H314.667C314.48 815.103 314.383 810.415 314.383 805.706C314.383 636.506 436.424 495.811 597.281 466.843ZM888.623 304.884C1078.01 304.884 1231.54 458.416 1231.54 647.806C1231.54 815.226 1111.57 954.622 952.903 984.711C984.709 932.55 1003.04 871.268 1003.04 805.706C1003.04 615.539 848.875 461.379 658.709 461.379C637.743 461.379 617.214 463.254 597.281 466.843C657.807 369.606 765.657 304.884 888.623 304.884Z" fill="#0D52FF"/>
<path d="M2285.68 737.793C2316.66 737.794 2344.02 744.505 2367.77 757.929C2391.52 771.353 2410.11 789.94 2423.53 813.69C2436.96 837.44 2443.67 864.805 2443.67 895.784V1175.89H2356.93V919.017C2356.93 897.849 2353.05 880.036 2345.31 865.58C2337.57 850.607 2326.47 839.248 2312.01 831.503C2298.07 823.242 2282.06 819.112 2263.99 819.112C2245.92 819.112 2229.66 823.243 2215.2 831.503C2201.26 839.248 2190.42 850.607 2182.67 865.58C2174.93 880.552 2171.06 898.365 2171.06 919.017V1175.89H2083.54V749.086C2083.54 747.982 2084.44 747.087 2085.54 747.086H2165.18C2166.29 747.086 2167.18 747.982 2167.18 749.086V790.681C2167.18 792.704 2169.92 793.496 2171.07 791.832C2180.48 778.219 2192.35 767.176 2206.68 758.704C2229.4 744.763 2255.73 737.794 2285.68 737.793ZM3167.13 589.096C3205.85 589.096 3239.93 596.325 3269.36 610.782C3299.3 624.722 3322.54 645.374 3339.06 672.738C3355.58 699.586 3363.84 731.856 3363.84 769.546C3363.84 806.72 3355.32 838.732 3338.29 865.58C3321.76 892.427 3298.79 913.08 3269.36 927.537C3239.93 941.993 3205.85 949.221 3167.13 949.221H3050.64C3049.53 949.221 3048.64 950.117 3048.64 951.221V1175.89H2957.25V671.875C2957.25 670.77 2958.15 669.875 2959.25 669.875H3046C3047.1 669.875 3048 668.979 3048 667.875V591.096C3048 589.992 3048.9 589.096 3050 589.096H3167.13ZM3480.71 747.086C3481.82 747.086 3482.71 747.982 3482.71 749.086V1175.89H3395.2V749.086C3395.2 747.982 3396.09 747.087 3397.2 747.086H3480.71ZM4479.01 579.803C4480.12 579.803 4481.01 580.699 4481.01 581.803V1175.89H4393.5V583.803C4393.5 581.594 4395.29 579.803 4397.5 579.803H4479.01ZM1746.71 579.803C1789.04 579.803 1828.03 587.289 1863.65 602.262C1899.79 616.719 1931.29 637.371 1958.13 664.219C1985.5 691.067 2006.67 722.562 2021.64 758.704C2036.61 794.845 2044.1 834.343 2044.1 877.196C2044.1 920.049 2036.36 959.548 2020.87 995.689C2005.89 1031.83 1984.98 1063.33 1958.13 1090.17C1931.29 1117.02 1899.79 1137.93 1863.65 1152.9C1827.51 1167.88 1788.53 1175.36 1746.71 1175.36C1704.89 1175.36 1665.9 1167.88 1629.76 1152.9C1594.14 1137.93 1562.64 1117.02 1535.28 1090.17C1508.43 1063.33 1487.26 1031.83 1471.77 995.689C1456.8 959.548 1449.31 920.049 1449.31 877.196C1449.31 834.343 1456.8 794.845 1471.77 758.704C1487.26 722.046 1508.43 690.551 1535.28 664.219C1562.13 637.371 1593.62 616.719 1629.76 602.262C1665.9 587.289 1704.89 579.803 1746.71 579.803ZM2672.86 737.793C2704.35 737.794 2732.49 743.215 2757.28 754.057C2782.06 764.9 2802.97 779.872 2820.01 798.975C2837.05 817.562 2849.95 838.99 2858.73 863.256C2868.02 887.523 2872.67 913.339 2872.67 940.703C2872.67 947.414 2872.41 954.385 2871.9 961.613C2871.42 968.254 2870.51 974.461 2869.17 980.231C2868.96 981.124 2868.15 981.749 2867.24 981.749H2559.05C2557.9 981.749 2556.99 982.714 2557.07 983.859C2558.26 1001 2562.26 1016.56 2569.08 1030.54C2579.92 1051.71 2594.9 1068.23 2614 1080.1C2633.62 1091.98 2655.82 1097.92 2680.6 1097.92C2705.9 1097.92 2727.33 1092.24 2744.88 1080.88C2762.68 1069.69 2776.73 1055.25 2787.01 1037.55C2787.28 1037.09 2787.85 1036.92 2788.32 1037.15L2857.03 1070.76C2857.99 1071.22 2858.41 1072.35 2857.99 1073.32C2849.7 1092.26 2837.04 1109.49 2820.01 1125.02C2802.97 1140.51 2782.32 1152.91 2758.05 1162.2C2734.3 1170.98 2708.23 1175.36 2679.83 1175.36C2638.01 1175.36 2600.83 1165.81 2568.31 1146.71C2536.3 1127.09 2511.26 1100.76 2493.18 1067.71C2475.11 1034.15 2466.08 996.721 2466.08 955.417C2466.08 913.08 2475.11 875.647 2493.18 843.12C2511.77 810.593 2536.56 785.035 2567.53 766.448C2598.51 747.345 2633.62 737.794 2672.86 737.793ZM4162.49 737.793C4193.98 737.793 4222.12 743.215 4246.91 754.057C4271.69 764.9 4292.6 779.872 4309.64 798.975C4326.68 817.562 4339.58 838.99 4348.36 863.256C4357.65 887.523 4362.3 913.339 4362.3 940.703C4362.3 947.414 4362.04 954.385 4361.53 961.613C4361.05 968.254 4360.14 974.461 4358.8 980.231C4358.59 981.124 4357.78 981.749 4356.87 981.749H4048.68C4047.53 981.749 4046.62 982.714 4046.7 983.859C4047.89 1001 4051.89 1016.56 4058.71 1030.54C4069.55 1051.71 4084.53 1068.23 4103.63 1080.1C4123.25 1091.98 4145.45 1097.92 4170.23 1097.92C4195.53 1097.92 4216.96 1092.24 4234.51 1080.88C4252.04 1069.86 4265.93 1055.69 4276.17 1038.36C4276.7 1037.45 4277.85 1037.1 4278.79 1037.56L4346.66 1070.76C4347.61 1071.22 4348.04 1072.35 4347.62 1073.32C4339.33 1092.26 4326.67 1109.49 4309.64 1125.02C4292.6 1140.51 4271.95 1152.91 4247.68 1162.2C4223.93 1170.98 4197.86 1175.36 4169.46 1175.36C4127.64 1175.36 4090.46 1165.81 4057.94 1146.71C4025.93 1127.09 4000.89 1100.76 3982.81 1067.71C3964.74 1034.15 3955.71 996.721 3955.71 955.417C3955.71 913.08 3964.74 875.647 3982.81 843.12C4001.4 810.593 4026.19 785.035 4057.16 766.448C4088.14 747.345 4123.25 737.794 4162.49 737.793ZM3699.51 1007.34C3700.06 1007.34 3700.51 1007.79 3700.51 1008.34V1089.98C3700.51 1090.54 3700.06 1090.98 3699.51 1090.98H3617.89C3617.34 1090.98 3616.89 1091.43 3616.89 1091.98V1173.62C3616.89 1174.17 3616.44 1174.62 3615.89 1174.62H3534.25C3533.7 1174.62 3533.25 1174.17 3533.25 1173.62V1091.98C3533.25 1091.43 3533.7 1090.98 3534.25 1090.98H3615.87C3616.42 1090.98 3616.87 1090.53 3616.87 1089.98V1008.34C3616.87 1007.79 3617.32 1007.34 3617.87 1007.34H3699.51ZM3950.49 1090.98C3951.04 1090.98 3951.49 1091.43 3951.49 1091.98V1173.62C3951.49 1174.17 3951.04 1174.62 3950.49 1174.62H3868.85C3868.29 1174.62 3867.85 1174.17 3867.85 1173.62V1091.98C3867.85 1091.43 3868.29 1090.98 3868.85 1090.98H3950.49ZM1746.71 662.67C1716.76 662.67 1689.14 668.092 1663.84 678.934C1639.06 689.777 1617.37 705.008 1598.78 724.627C1580.2 744.247 1565.74 766.965 1555.41 792.78C1545.6 818.595 1540.7 846.734 1540.7 877.196C1540.7 907.658 1545.6 936.056 1555.41 962.387C1565.74 988.202 1580.2 1010.92 1598.78 1030.54C1617.37 1049.64 1639.31 1064.62 1664.61 1075.46C1689.91 1086.3 1717.28 1091.72 1746.71 1091.72C1776.65 1091.72 1804.02 1086.3 1828.8 1075.46C1854.1 1064.62 1876.04 1049.64 1894.63 1030.54C1913.22 1010.92 1927.67 988.202 1938 962.387C1948.32 936.056 1953.49 907.658 1953.49 877.196C1953.49 846.734 1948.32 818.595 1938 792.78C1927.67 766.965 1913.22 744.247 1894.63 724.627C1876.04 705.008 1854.1 689.777 1828.8 678.934C1804.02 668.092 1776.65 662.67 1746.71 662.67ZM3866.77 1007.34C3867.32 1007.34 3867.77 1007.79 3867.77 1008.34V1089.98C3867.77 1090.54 3867.32 1090.98 3866.77 1090.98H3785.13C3784.58 1090.98 3784.13 1090.54 3784.13 1089.98V1008.34C3784.13 1007.79 3784.58 1007.34 3785.13 1007.34H3866.77ZM3866.77 840.06C3867.32 840.06 3867.77 840.508 3867.77 841.06V922.699C3867.77 923.251 3867.32 923.699 3866.77 923.699H3785.15C3784.6 923.699 3784.15 924.147 3784.15 924.699V1006.34C3784.15 1006.89 3783.71 1007.34 3783.15 1007.34H3701.51C3700.96 1007.34 3700.51 1006.89 3700.51 1006.34V924.697C3700.51 924.145 3700.96 923.697 3701.51 923.697H3783.13C3783.69 923.697 3784.13 923.249 3784.13 922.697V841.06C3784.13 840.508 3784.58 840.06 3785.13 840.06H3866.77ZM3615.89 756.422C3616.44 756.422 3616.89 756.87 3616.89 757.422V839.06C3616.89 839.612 3617.34 840.06 3617.89 840.06H3699.51C3700.06 840.06 3700.51 840.508 3700.51 841.06V922.699C3700.51 923.251 3700.06 923.699 3699.51 923.699H3617.87C3617.32 923.699 3616.87 923.251 3616.87 922.699V841.062C3616.87 840.51 3616.42 840.062 3615.87 840.062H3534.25C3533.7 840.062 3533.25 839.614 3533.25 839.062V757.422C3533.25 756.87 3533.7 756.422 3534.25 756.422H3615.89ZM2672.86 811.367C2649.63 811.367 2628.97 817.304 2610.9 829.179C2592.83 840.538 2578.89 857.061 2569.08 878.746C2564.72 888.155 2561.54 898.483 2559.52 909.728C2559.3 910.941 2560.24 912.047 2561.48 912.047H2778.09C2779.23 912.047 2780.14 911.098 2780.07 909.962C2779.33 897.987 2776.64 886.806 2771.99 876.421C2763.73 856.286 2750.82 840.538 2733.27 829.179C2716.23 817.304 2696.09 811.367 2672.86 811.367ZM4162.49 811.367C4139.26 811.367 4118.6 817.304 4100.53 829.179C4082.46 840.538 4068.52 857.061 4058.71 878.746C4054.35 888.155 4051.16 898.483 4049.15 909.728C4048.93 910.941 4049.87 912.047 4051.11 912.047H4267.72C4268.86 912.047 4269.77 911.098 4269.7 909.962C4268.96 897.987 4266.27 886.806 4261.62 876.421C4253.36 856.286 4240.45 840.538 4222.9 829.179C4205.86 817.304 4185.72 811.367 4162.49 811.367ZM3050.64 670.415C3049.53 670.415 3048.64 671.31 3048.64 672.415V865.903C3048.64 867.007 3049.53 867.903 3050.64 867.903H3169.45C3190.11 867.903 3208.18 863.772 3223.67 855.511C3239.15 847.251 3251.29 835.891 3260.07 821.435C3268.84 806.462 3273.23 788.907 3273.23 768.772C3273.23 748.636 3268.84 731.339 3260.07 716.882C3251.29 701.91 3239.16 690.551 3223.67 682.806C3208.18 674.545 3190.11 670.415 3169.45 670.415H3050.64ZM3950.49 756.422C3951.04 756.422 3951.49 756.87 3951.49 757.422V839.062C3951.49 839.614 3951.04 840.062 3950.49 840.062H3868.85C3868.29 840.062 3867.85 839.614 3867.85 839.062V757.422C3867.85 756.87 3868.29 756.422 3868.85 756.422H3950.49ZM3480.71 589.096C3481.82 589.096 3482.71 589.992 3482.71 591.096V675.675C3482.71 676.779 3481.82 677.675 3480.71 677.675H3397.2C3396.09 677.675 3395.2 676.779 3395.2 675.675V591.096C3395.2 589.992 3396.09 589.096 3397.2 589.096H3480.71Z" fill="#0D52FF"/>
</svg>
